<?xml version="1.0" encoding="utf-8"?>
<!-- Generator: Adobe Illustrator 14.0.0, SVG Export Plug-In  -->
<!DOCTYPE svg PUBLIC "-//W3C//DTD SVG 1.1//EN" "http://www.w3.org/Graphics/SVG/1.1/DTD/svg11.dtd" [
	<!ENTITY ns_flows "http://ns.adobe.com/Flows/1.0/">
]>
<svg version="1.1"
	 xmlns="http://www.w3.org/2000/svg" xmlns:xlink="http://www.w3.org/1999/xlink" xmlns:a="http://ns.adobe.com/AdobeSVGViewerExtensions/3.0/"
	 x="0px" y="0px" width="450px" height="200px" viewBox="-70 0 450 200" enable-background="new -70 0 450 200"
	 xml:space="preserve">
<defs>
</defs>
<path fill="#FFFFFF" d="M245.992,84.158l-2.432-17.925c0,0-1.519-3.645-6.075-4.253c-4.559-0.608-5.772,4.558-5.772,4.558
	l-21.876,1.671l-3.342-5.925l-8.203,0.305l-3.037-3.039h-6.685l-3.344-2.43h-3.037l-2.128,3.342h-4.253v-1.823l-2.127-2.734h-2.733
	v-2.734l-2.734-0.608l-2.127-31.293L146.035,0h-6.265l-17.433,19.141v3.95l-2.43,1.215v11.242l-25.825,0.607v2.734l-12.761-1.215
	l-1.215-21.269h-6.684l-1.215,37.066c-4.253,2.735-3.342,4.559-3.342,4.559v78.387l-0.082,17.317l32.287,0.331v-20.368
	c0,0,1.215-5.166,6.076-5.471c4.861-0.301,6.685,5.165,6.685,5.165v20.805l132.162,1.359l-3.95-66.538L245.992,84.158z
	 M96.513,51.954h-4.558v-6.077h4.558V51.954z M103.804,109.375h-2.734v-7.596h2.734V109.375z M103.804,78.29h-2.734v-6.588h2.734
	V78.29z M128.11,19.141h3.341v4.861h-3.341V19.141z M133.273,60.157v8.203h-3.493v-8.203H133.273z M129.78,95.08h3.493v8.204h-3.493
	V95.08z M133.898,134.466h-3.493v-8.203h3.493V134.466z M181.583,111.902h-5.167V95.801h5.167V111.902z M181.583,84.462h-5.167
	V68.36h5.167V84.462z M198.243,73.349h5.166v16.103h-5.166V73.349z M204.033,116.893h-5.166v-16.104h5.166V116.893z
	 M222.743,120.012h-5.166v-16.104h5.166V120.012z M222.743,93.194h-5.166V77.091h5.166V93.194z"/>
<path fill="#FFFFFF" d="M121.049,161.796c-7.313,0-13.354,5.724-13.354,13.09s6.094,13.195,13.354,13.195
	c7.26,0,13.195-5.829,13.195-13.195S128.309,161.796,121.049,161.796z"/>
<polygon fill="#FFFFFF" points="231.66,179.496 245.651,179.496 238.655,163.016 "/>
<path fill="#FFFFFF" d="M0,147.154V200h315.025v-52.846H0z M94.6,193.434h-5.776l-0.053-27.716l-11.712,23.848h-4.081
	l-11.711-23.848v27.716h-5.882v-37.096h7.419l12.242,24.643l12.188-24.643H94.6V193.434z M120.996,193.698
	c-11.076,0-19.661-8.214-19.661-18.813c0-10.651,8.585-18.707,19.661-18.707s19.661,8.108,19.661,18.707
	S132.072,193.698,120.996,193.698z M179.506,193.434h-6.147l-19.767-26.603v26.603h-6.253v-37.096h6.147l19.872,26.656v-26.656
	h6.147V193.434z M216.447,193.434h-27.133v-37.096h26.497v5.617h-20.243v10.016h18.124v5.618h-18.124v10.228h20.879V193.434z
	 M251.586,193.434l-3.551-8.373h-18.706l-3.551,8.373h-6.519l16.375-37.096h6.412l16.217,37.096H251.586z"/>
</svg>
